<svg width="180" height="180" viewBox="0 0 180 180" fill="none" xmlns="http://www.w3.org/2000/svg">
  <!-- Background with rounded corners for iOS -->
  <rect width="180" height="180" rx="40" fill="url(#apple-gradient)"/>
  
  <!-- Subtle inner shadow -->
  <rect x="4" y="4" width="172" height="172" rx="36" fill="none" stroke="url(#inner-gradient)" stroke-width="2" opacity="0.2"/>
  
  <!-- P Letter - larger and more detailed -->
  <path d="M50 55 L50 125 M50 55 L85 55 C95 55 102 62 102 72 C102 82 95 89 85 89 L50 89" 
        stroke="#ffffff" stroke-width="8" stroke-linecap="round" stroke-linejoin="round" fill="none"/>
  
  <!-- G Letter - larger and more detailed -->
  <path d="M130 72 C130 58 119 45 105 45 C91 45 80 58 80 72 L80 108 C80 122 91 135 105 135 C119 135 130 122 130 108 L130 95 L115 95" 
        stroke="#ffffff" stroke-width="8" stroke-linecap="round" stroke-linejoin="round" fill="none"/>
  
  <!-- Terminal dots (like your page design) -->
  <circle cx="35" cy="35" r="4" fill="#ef4444"/>
  <circle cx="50" cy="35" r="4" fill="#eab308"/>
  <circle cx="65" cy="35" r="4" fill="#22c55e"/>
  
  <!-- Blinking cursor -->
  <rect x="135" y="120" width="6" height="12" fill="#00ff88" opacity="0.9">
    <animate attributeName="opacity" values="0.9;0.3;0.9" dur="1.2s" repeatCount="indefinite"/>
  </rect>
  
  <defs>
    <linearGradient id="apple-gradient" x1="0%" y1="0%" x2="100%" y2="100%">
      <stop offset="0%" style="stop-color:#1e293b"/>
      <stop offset="30%" style="stop-color:#334155"/>
      <stop offset="70%" style="stop-color:#475569"/>
      <stop offset="100%" style="stop-color:#1e293b"/>
    </linearGradient>
    <linearGradient id="inner-gradient" x1="0%" y1="0%" x2="100%" y2="100%">
      <stop offset="0%" style="stop-color:#3b82f6"/>
      <stop offset="50%" style="stop-color:#8b5cf6"/>
      <stop offset="100%" style="stop-color:#06b6d4"/>
    </linearGradient>
  </defs>
</svg>
