<svg width="32" height="32" viewBox="0 0 32 32" fill="none" xmlns="http://www.w3.org/2000/svg">
  <!-- Background -->
  <rect width="32" height="32" rx="6" fill="url(#bg-gradient)"/>
  
  <!-- P Letter -->
  <path d="M9 10 L9 22 M9 10 L14 10 C15.5 10 16.5 11 16.5 12 C16.5 13 15.5 14 14 14 L9 14" 
        stroke="#ffffff" stroke-width="1.5" stroke-linecap="round" stroke-linejoin="round" fill="none"/>
  
  <!-- G Letter -->
  <path d="M23 12 C23 10.5 22 9 20.5 9 C19 9 18 10.5 18 12 L18 20 C18 21.5 19 23 20.5 23 C22 23 23 21.5 23 20 L23 18.5 L21.5 18.5" 
        stroke="#ffffff" stroke-width="1.5" stroke-linecap="round" stroke-linejoin="round" fill="none"/>
  
  <!-- Small terminal cursor -->
  <rect x="24" y="21" width="1" height="2" fill="#00ff88" opacity="0.8"/>
  
  <defs>
    <linearGradient id="bg-gradient" x1="0%" y1="0%" x2="100%" y2="100%">
      <stop offset="0%" style="stop-color:#1f2937"/>
      <stop offset="50%" style="stop-color:#374151"/>
      <stop offset="100%" style="stop-color:#111827"/>
    </linearGradient>
  </defs>
</svg>
