<svg width="64" height="64" viewBox="0 0 64 64" fill="none" xmlns="http://www.w3.org/2000/svg">
  <!-- Background -->
  <rect width="64" height="64" rx="12" fill="url(#bg-gradient)"/>
  
  <!-- Terminal-style border -->
  <rect x="2" y="2" width="60" height="60" rx="10" fill="none" stroke="url(#border-gradient)" stroke-width="1" opacity="0.3"/>
  
  <!-- P Letter -->
  <path d="M18 20 L18 44 M18 20 L28 20 C31 20 33 22 33 25 C33 28 31 30 28 30 L18 30" 
        stroke="#ffffff" stroke-width="3" stroke-linecap="round" stroke-linejoin="round" fill="none"/>
  
  <!-- G Letter -->
  <path d="M46 25 C46 21 43 18 39 18 C35 18 32 21 32 25 L32 39 C32 43 35 46 39 46 C43 46 46 43 46 39 L46 35 L42 35" 
        stroke="#ffffff" stroke-width="3" stroke-linecap="round" stroke-linejoin="round" fill="none"/>
  
  <!-- Terminal cursor effect -->
  <rect x="48" y="42" width="2" height="4" fill="#00ff88" opacity="0.8">
    <animate attributeName="opacity" values="0.8;0.2;0.8" dur="1s" repeatCount="indefinite"/>
  </rect>
  
  <defs>
    <linearGradient id="bg-gradient" x1="0%" y1="0%" x2="100%" y2="100%">
      <stop offset="0%" style="stop-color:#1f2937"/>
      <stop offset="50%" style="stop-color:#374151"/>
      <stop offset="100%" style="stop-color:#111827"/>
    </linearGradient>
    <linearGradient id="border-gradient" x1="0%" y1="0%" x2="100%" y2="100%">
      <stop offset="0%" style="stop-color:#3b82f6"/>
      <stop offset="50%" style="stop-color:#8b5cf6"/>
      <stop offset="100%" style="stop-color:#06b6d4"/>
    </linearGradient>
  </defs>
</svg>
